<svg height="512pt" viewBox="-17 0 512 512.00021" width="512pt" xmlns="http://www.w3.org/2000/svg"><path d="m432 493.136719h-187.226562l-55.371094-96.363281-62.746094-.628907c-6.140625-.058593-11.085938-5.054687-11.085938-11.195312v-81.621094h-38.230468c-6.027344 0-10.972656-4.761719-11.199219-10.785156-.976563-26.25-.175781-94.839844 30.359375-142.816407.472656-.742187.949219-1.472656 1.433594-2.203124 8.960937-13.496094 24.289062-26.003907 32.480468-35.953126h228.050782c4.894531 12.113282 8.179687 25.023438 9.570312 38.484376 1.296875 12.433593.988282 25.34375-1.164062 38.5l-27.671875 161.863281c-.453125 2.605469.125 5.292969 1.609375 7.488281zm0 0" fill="#fecbaa"/><g fill="#ffae85"><path d="m432 493.136719h-26.09375l-91.191406-135.230469c-1.484375-2.195312-2.058594-4.882812-1.605469-7.488281l27.667969-161.863281c2.152344-13.15625 2.464844-26.066407 1.164062-38.5-1.390625-13.460938-4.675781-26.371094-9.570312-38.484376h26.097656c4.890625 12.113282 8.179688 25.023438 9.570312 38.484376 1.296876 12.433593.988282 25.34375-1.164062 38.5l-27.671875 161.863281c-.453125 2.605469.125 5.292969 1.605469 7.488281zm0 0"/><path d="m259.453125 311.40625c-45.78125 0-83.03125-37.246094-83.03125-83.03125s37.25-83.03125 83.03125-83.03125c45.785156 0 83.035156 37.246094 83.035156 83.03125-.003906 45.785156-37.25 83.03125-83.035156 83.03125zm0 0"/><path d="m368.035156 150.054688c-.9375.113281-1.882812.175781-2.851562.175781h-260.132813c-2.894531 0-5.746093-.164063-8.550781-.503907.476562-.742187.949219-1.472656 1.433594-2.207031 8.964844-13.492187 24.292968-26 32.480468-35.953125h228.050782c4.894531 12.117188 8.179687 25.027344 9.570312 38.488282zm0 0"/></g><path d="m366.882812 188.554688-26.355468 154.078124c-1.0625 6.226563-7.4375 10.039063-13.429688 8.03125l-75.121094-25.1875c-4.5625-1.535156-7.644531-5.808593-7.644531-10.621093v-141.457031h-37.632812c-2.6875 0-5.160157-.945313-7.085938-2.53125-2.515625-2.050782-4.113281-5.171876-4.113281-8.664063v-53.488281h161.78125c10.3125 24.003906 14.246094 51.335937 9.601562 79.839844zm0 0" fill="#c97f4c"/><path d="m342.488281 228.382812c0 45.78125-37.25 83.019532-83.035156 83.019532-5.160156 0-10.21875-.472656-15.121094-1.378906v-136.625h-37.632812c-2.6875 0-5.160157-.945313-7.085938-2.53125 15.121094-15.722657 36.363281-25.519532 59.839844-25.519532 45.785156 0 83.035156 37.242188 83.035156 83.035156zm0 0" fill="#aa6344"/><path d="m409.5 437.324219c-22.964844 7.9375-121.546875 40.804687-188.523438 44.164062-5.945312.296875-10.601562 5.226563-10.601562 11.179688v8.132812c0 6.183594 5.015625 11.199219 11.203125 11.199219h228.890625c6.558594 0 11.6875-5.601562 11.164062-12.140625-1.179687-14.703125-8.617187-40.144531-42.453124-61.386719-2.894532-1.820312-6.445313-2.265625-9.679688-1.148437zm0 0" fill="#64bdff"/><path d="m365.1875 137.871094h-260.136719c-33.515625 0-60.683593-27.171875-60.683593-60.683594v-55.980469c0-6.1875 5.015624-11.203125 11.199218-11.203125h225.578125c52.597657 0 95.242188 42.644532 95.242188 95.246094v21.417969c0 6.1875-5.015625 11.203125-11.199219 11.203125zm0 0" fill="#aa6344"/><path d="m198.375 307.5625c0 13.070312-4.613281 23.929688-13.699219 32.285156-17.152343 15.761719-46.113281 17.933594-60.761719 17.933594-4.078124 0-7.046874-.164062-8.34375-.257812v-15.472657c.207032 0 .421876.011719.640626.03125.113281.011719 3.070312.238281 7.683593.238281 12.484375 0 37.105469-1.671874 50.34375-13.867187 5.84375-5.378906 8.683594-12.21875 8.683594-20.890625 0-4.265625 3.460937-7.726562 7.726563-7.726562 4.265624 0 7.726562 3.460937 7.726562 7.726562zm0 0" fill="#ffae85"/><path d="m415.523438 183.484375c-1.980469 0-3.957032-.757813-5.464844-2.265625-3.019532-3.015625-3.019532-7.90625 0-10.925781l2.6875-2.6875v-30.878907c0-2.972656 1.707031-5.679687 4.382812-6.964843l28-13.441407c2.394532-1.148437 5.210938-.988281 7.457032.429688 2.25 1.414062 3.613281 3.882812 3.613281 6.539062v34.074219c0 2.050781-.8125 4.015625-2.261719 5.464844l-4.953125 4.949219c-3.015625 3.019531-7.90625 3.019531-10.925781 0-3.019532-3.015625-3.019532-7.90625 0-10.925782l2.6875-2.6875v-18.597656l-12.546875 6.019532v29.21875c0 2.046874-.8125 4.011718-2.261719 5.460937l-4.953125 4.953125c-1.507813 1.511719-3.484375 2.265625-5.460937 2.265625zm0 0" fill="#89b4c9"/><path d="m7.726562 209.363281c-1.976562 0-3.953124-.757812-5.464843-2.265625-3.015625-3.015625-3.015625-7.90625 0-10.925781l2.691406-2.6875v-30.878906c0-2.972657 1.703125-5.679688 4.382813-6.964844l27.996093-13.4375c2.394531-1.152344 5.210938-.992187 7.460938.425781 2.246093 1.414063 3.609375 3.882813 3.609375 6.539063v34.078125c0 2.046875-.8125 4.011718-2.261719 5.460937l-4.953125 4.953125c-3.015625 3.015625-7.90625 3.015625-10.925781 0-3.015625-3.019531-3.015625-7.910156 0-10.929687l2.6875-2.6875v-18.597657l-12.542969 6.023438v29.214844c0 2.046875-.816406 4.015625-2.265625 5.460937l-4.949219 4.953125c-1.511718 1.507813-3.488281 2.265625-5.464844 2.265625zm0 0" fill="#3fefef"/><path d="m437.582031 89.066406c-1.976562 0-3.953125-.757812-5.460937-2.265625-3.019532-3.015625-3.019532-7.90625 0-10.925781l2.6875-2.6875v-30.878906c0-2.96875 1.703125-5.679688 4.382812-6.964844l28-13.4375c2.394532-1.152344 5.210938-.988281 7.457032.425781 2.25 1.414063 3.613281 3.882813 3.613281 6.539063v34.078125c0 2.046875-.816407 4.015625-2.265625 5.464843l-4.949219 4.949219c-3.019531 3.015625-7.910156 3.015625-10.929687 0-3.015626-3.019531-3.015626-7.910156 0-10.929687l2.691406-2.6875v-18.597656l-12.546875 6.023437v29.214844c0 2.050781-.8125 4.015625-2.261719 5.464843l-4.953125 4.949219c-1.507813 1.507813-3.488281 2.265625-5.464844 2.265625zm0 0" fill="#64bdff"/><path d="m298.652344 238.019531-69.285156-28.808593 84.105468-202.308594c2.375-5.710938 8.929688-8.417969 14.640625-6.042969l48.605469 20.207031c5.710938 2.375 8.417969 8.929688 6.042969 14.644532zm0 0" fill="#4e7693"/><path d="m330.125 228.375c0 39.03125-31.640625 70.671875-70.671875 70.671875-39.027344 0-70.667969-31.640625-70.667969-70.671875 0-39.027344 31.640625-70.667969 70.667969-70.667969 39.03125 0 70.671875 31.640625 70.671875 70.667969zm0 0" fill="#89b4c9"/><path d="m222.863281 236.101562c-4.269531 0-7.726562-3.457031-7.726562-7.726562 0-24.4375 19.882812-44.316406 44.316406-44.316406 4.269531 0 7.726563 3.457031 7.726563 7.726562 0 4.265625-3.457032 7.726563-7.726563 7.726563-15.914063 0-28.863281 12.949219-28.863281 28.863281 0 4.269531-3.460938 7.726562-7.726563 7.726562zm0 0" fill="#4e7693"/><path d="m324.113281 278.488281-10.820312 10.824219c-4.375 4.375-11.464844 4.375-15.839844 0l-14.101563-14.101562c-4.375-4.371094-4.375-11.464844 0-15.835938l10.824219-10.824219c4.371094-4.375 11.464844-4.375 15.835938 0l14.101562 14.101563c4.375 4.371094 4.375 11.464844 0 15.835937zm0 0" fill="#3fefef"/><path d="m134.984375 246.539062c-7.628906 0-14.464844-4.257812-17.839844-11.109374-1.882812-3.828126-.308593-8.457032 3.519531-10.34375 3.828126-1.886719 8.460938-.308594 10.34375 3.519531.753907 1.53125 2.277344 2.480469 3.976563 2.480469 1.703125 0 3.226563-.949219 3.976563-2.480469 1.886718-3.828125 6.515624-5.402344 10.347656-3.519531 3.828125 1.886718 5.402344 6.515624 3.519531 10.34375-3.375 6.855468-10.210937 11.109374-17.84375 11.109374zm0 0" fill="#aa6344"/></svg>